<svg xmlns="http://www.w3.org/2000/svg" xmlns:xlink="http://www.w3.org/1999/xlink" version="1.0" x="0" y="0" width="2400" height="2576.6949821920953" viewBox="139.4 92.14713897705079 61.2 65.70572204589844" preserveAspectRatio="xMidYMid meet" color-interpolation-filters="sRGB"><g><defs><linearGradient id="92" x1="0%" y1="0%" x2="100%" y2="0%"><stop offset="0%" stop-color="#fa71cd"></stop> <stop offset="100%" stop-color="#9b59b6"></stop></linearGradient><linearGradient id="93" x1="0%" y1="0%" x2="100%" y2="0%"><stop offset="0%" stop-color="#f9d423"></stop> <stop offset="100%" stop-color="#f83600"></stop></linearGradient><linearGradient id="94" x1="0%" y1="0%" x2="100%" y2="0%"><stop offset="0%" stop-color="#0064d2"></stop> <stop offset="100%" stop-color="#1cb0f6"></stop></linearGradient><linearGradient id="95" x1="0%" y1="0%" x2="100%" y2="0%"><stop offset="0%" stop-color="#f00978"></stop> <stop offset="100%" stop-color="#3f51b1"></stop></linearGradient><linearGradient id="96" x1="0%" y1="0%" x2="100%" y2="0%"><stop offset="0%" stop-color="#7873f5"></stop> <stop offset="100%" stop-color="#ec77ab"></stop></linearGradient><linearGradient id="97" x1="0%" y1="0%" x2="100%" y2="0%"><stop offset="0%" stop-color="#f9d423"></stop> <stop offset="100%" stop-color="#e14fad"></stop></linearGradient><linearGradient id="98" x1="0%" y1="0%" x2="100%" y2="0%"><stop offset="0%" stop-color="#009efd"></stop> <stop offset="100%" stop-color="#2af598"></stop></linearGradient><linearGradient id="99" x1="0%" y1="0%" x2="100%" y2="0%"><stop offset="0%" stop-color="#ffcc00"></stop> <stop offset="100%" stop-color="#00b140"></stop></linearGradient><linearGradient id="100" x1="0%" y1="0%" x2="100%" y2="0%"><stop offset="0%" stop-color="#d51007"></stop> <stop offset="100%" stop-color="#ff8177"></stop></linearGradient><linearGradient id="102" x1="0%" y1="0%" x2="100%" y2="0%"><stop offset="0%" stop-color="#a2b6df"></stop> <stop offset="100%" stop-color="#0c3483"></stop></linearGradient><linearGradient id="103" x1="0%" y1="0%" x2="100%" y2="0%"><stop offset="0%" stop-color="#7ac5d8"></stop> <stop offset="100%" stop-color="#eea2a2"></stop></linearGradient><linearGradient id="104" x1="0%" y1="0%" x2="100%" y2="0%"><stop offset="0%" stop-color="#00ecbc"></stop> <stop offset="100%" stop-color="#007adf"></stop></linearGradient><linearGradient id="105" x1="0%" y1="0%" x2="100%" y2="0%"><stop offset="0%" stop-color="#b88746"></stop> <stop offset="100%" stop-color="#fdf5a6"></stop></linearGradient></defs><g class="imagesvg isNoFont" transform="translate(140,92.74713897705078)"><g><rect fill="#3c4352" fill-opacity="0" stroke-width="2" x="0" y="0" width="60" height="64.50572488308337" class="image-rect"></rect> <svg filter="url(#colors94605621)" x="0" y="0" width="60" height="64.50572488308337" filtersec="colorsf3128013343" class="image-svg-svg primary" style="overflow: visible;"><svg xmlns="http://www.w3.org/2000/svg" xmlns:xlink="http://www.w3.org/1999/xlink" version="1.1" x="0px" y="0px" viewBox="4.235076904296875 2 59.52984619140625 64" xml:space="preserve"><g><path d="M61.1064758,13.0571289H46.9772034C44.2928543,6.7741461,37.8917618,2,30.150177,2   c-4.7852173,0-9.1569214,1.8413086-12.4160156,4.8544922C16.5526428,4.550293,14.1600037,2.9848633,11.39328,2.9848633   c-3.9581909,0-7.1582031,3.199707-7.1582031,7.1577148c0,3.9482422,3.2000122,7.1484375,7.1582031,7.1484375   c0.2362671,0,0.4627075-0.0097656,0.6891479-0.0390625c-0.1771851,1.0043945-0.2658081,2.0380859-0.2658081,3.0913086v5.1992188   c-3.8203125,0.7871094-6.6954346,4.1743164-6.6954346,8.2114258v23.887207C5.1211853,62.2485352,8.8824158,66,13.5002747,66   h33.289856c4.6178589,0,8.3790894-3.7514648,8.3790894-8.3588867v-23.887207c0-4.0371094-2.875061-7.4243164-6.6855469-8.2114258   v-3.2001953h12.6228027c1.467041,0,2.6584473-1.1914063,2.6584473-2.668457v-3.9379883   C63.7649231,14.2587891,62.5735168,13.0571289,61.1064758,13.0571289z M11.2356873,12.2304688   c-0.4204159,0.375288-1.0194616,0.3261003-1.3883057-0.0791016l-1.407959-1.5654297   c-0.3643799-0.4038086-0.3348389-1.0239258,0.0688477-1.3881836C8.9120178,8.8330078,9.5421448,8.862793,9.9064636,9.2661133   l0.7483521,0.8374023l2.2940674-2.0581055c0.4037476-0.3642578,1.0240479-0.324707,1.3883667,0.0791016   c0.3643188,0.4033203,0.3347168,1.0239258-0.0689087,1.3881836L11.2356873,12.2304688z M47.6565857,17.7045898   c0,0.6889648-0.5217896,1.2504883-1.2011719,1.3095703c-0.0394287,0.0200195-0.0886841,0.0200195-0.1378784,0.0200195   c-0.7384644,0-1.3390503-0.5908203-1.3390503-1.3295898c0-0.6499023,0.4528809-1.1816406,1.0535278-1.2998047v-0.0097656   c0.088562-0.0195313,0.1870728-0.0292969,0.2855225-0.0292969C47.0559998,16.3657227,47.6565857,16.9560547,47.6565857,17.7045898z    M14.1993713,16.7099609c2.5599976-1.0825195,4.3421631-3.6132813,4.3421631-6.5673828   c0-0.4130859-0.0393677-0.8168945-0.1083374-1.2109375c2.9735718-3.0620117,7.1286011-4.9624023,11.71698-4.9624023   c6.5249634,0,12.0386963,3.8108788,14.6609497,9.0878906h-6.3705444c-2.2599907-2.4480314-5.2311096-3.6625977-8.2904053-3.6625977   c-6.1834106,0-11.2147827,5.0410156-11.2147827,11.2246094v4.7456055h-5.1495361v-5.0214844   c0-1.2504883,0.1378174-2.4614258,0.4135132-3.6230469V16.7099609z M40.547699,17.7045898   c0-0.709444,0.5631638-1.3388672,1.3390503-1.3388672c0.7384644,0,1.3390503,0.590332,1.3390503,1.3388672   c0,0.7387695-0.6005859,1.3295898-1.3390503,1.3295898C41.175148,19.0341797,40.547699,18.4588947,40.547699,17.7045898z    M20.9046326,25.375v-4.7558594c0-5.1005859,4.1452026-9.2553711,9.2455444-9.2553711   c1.9593506,0,3.8203125,0.6103516,5.3759766,1.7329102c-1.2603149,0.2167969-2.2252197,1.3193359-2.2252197,2.6391602v3.9379883   c0,1.4770508,1.2012329,2.668457,2.6682739,2.668457h3.4265137V25.375H20.9046326z M37.4560242,16.3657227   c0.7384033,0,1.3390503,0.590332,1.3390503,1.3388672c0,0.7387695-0.600647,1.3295898-1.3390503,1.3295898   c-0.7384644,0-1.3391113-0.5908203-1.3391113-1.3295898C36.1169128,16.9560547,36.7175598,16.3657227,37.4560242,16.3657227z    M10.9796448,31.0170898c0-0.4633789,0.3742065-0.8374023,0.8369751-0.8374023h5.4154053   c0.4627075,0,0.8369141,0.3740234,0.8369141,0.8374023c0,0.4526367-0.3742065,0.8364258-0.8369141,0.8364258   c-0.1785526,0-4.730689,0-4.5784912,0c0,0.2060432,0,4.7119751,0,4.5786133c0,0.453125-0.3741455,0.8364258-0.8369141,0.8364258   s-0.8369751-0.3833008-0.8369751-0.8364258V31.0170898z M20.6191101,54.440918   c-0.0886841,0.3837891-0.4332275,0.6494141-0.8172607,0.6494141c-0.059082,0-0.1181641-0.0097656-0.1870728-0.0195313   c-0.4529419-0.1083984-0.7286377-0.5610352-0.630188-1.0043945c0.4234009-1.8012695,0.3741455-3.3178711-0.1378784-4.6469727   c-2.0922356-5.4333076-0.4648304-11.8794365,4.2339478-15.3012695c0.3741455-0.2753906,0.8959351-0.1967773,1.1716919,0.1772461   c0.2756348,0.3745117,0.1870728,0.90625-0.1870728,1.171875c-3.9734287,2.9127541-5.526247,8.4828186-3.6529541,13.3515625   C21.04245,50.4726563,21.1114197,52.3041992,20.6191101,54.440918z M26.6645813,58.09375l-0.0787354,0.206543   c-0.118103,0.3442383-0.4430542,0.5610352-0.7877197,0.5610352c-0.088562,0-0.1870117-0.0195313-0.2756348-0.0488281   c-0.4431152-0.1577148-0.6695557-0.6401367-0.5120239-1.0737305l0.0787354-0.2163086   c0.3544922-0.9648438,0.6203613-1.8706055,0.8074341-2.7470703c0.118103-0.5117188,0.2067871-1.0043945,0.2756348-1.496582   c0.059082-0.4526367,0.4726563-0.777832,0.9354248-0.71875s0.7778931,0.4829102,0.718811,0.9453125   c0,0.0195313,0,0.0297852-0.0098877,0.0488281C27.6197205,54.9916992,27.2455139,56.4790039,26.6645813,58.09375z    M35.4572449,49.2416992c0.0393677,0.4628906-0.2954102,0.8662109-0.7581787,0.9160156   C34.3544617,50.1870117,34.0295715,50,33.8818665,49.7045898c-0.0492554-0.0888672-0.0787964-0.1870117-0.088623-0.2954102   v-0.0097656c-0.1870728-1.9790039-0.6400146-3.8891602-1.3981934-5.8486328   c-0.4627075-1.2011719-1.5162964-1.9692383-2.6978149-1.9692383c-0.4234009,0-0.8369141,0.0986328-1.2209473,0.2954102   c-1.4572144,0.7382813-2.1070557,2.5996094-1.4769287,4.2436523C27.4916687,47.4003906,27.7870789,48.6611328,27.9150696,50   v0.0102539c0.0393677,0.4624023-0.2953491,0.8662109-0.7581787,0.9057617   c-0.02948,0.0092773-0.0491943,0.0092773-0.0787354,0.0092773c-0.4233398,0-0.7975464-0.324707-0.8369141-0.7578125   c-0.1083374-1.1816406-0.3643188-2.3139648-0.8074341-3.4462891c-0.9353027-2.4316406,0.0689697-5.2084961,2.2843018-6.3408203   c0.6203613-0.3149414,1.289856-0.4726563,1.979126-0.4726563c1.8806152,0,3.5544434,1.1914063,4.2633667,3.0429688   c0.7483521,1.9394531,1.2209473,3.8398438,1.4375,5.7890625C35.4277039,48.9072266,35.4375305,49.074707,35.4572449,49.2416992z    M31.1544495,55.6518555c-0.2461548,1.0336914-0.5612183,2.1264648-0.9451904,3.2294922   c-0.1280518,0.3447266-0.4431152,0.5615234-0.7877197,0.5615234c-0.0984497,0-0.1870728-0.0205078-0.2855835-0.0498047   c-0.4332275-0.1572266-0.659668-0.6298828-0.5119019-1.0727539c0.3740845-1.0439453,0.6694946-2.0678711,0.8959351-3.0429688   c0.0984497-0.4526367,0.5513916-0.7382813,1.0043335-0.6298828C30.9772034,54.7456055,31.2529602,55.1987305,31.1544495,55.6518555   z M31.6763,52.2944336c-0.0393677,0.4423828-0.4036865,0.7675781-0.8369141,0.7675781h-0.0689087   c-0.4529419-0.0395508-0.7975464-0.4428711-0.7680054-0.8955078c0.0689087-0.8076172,0.0787354-1.5952148,0.0394287-2.3833008   h-0.0098877c-0.0787964-1.8115234-0.4529419-3.5541992-1.1027832-5.3066406   c-0.1674194-0.4331055,0.0492554-0.9160156,0.4824829-1.0732422c0.4332275-0.1674805,0.9156494,0.0493164,1.0830688,0.4824219   c0.6990967,1.8803711,1.1126099,3.7709961,1.2208862,5.7299805c0.0197144,0.4731445,0.029541,0.9555664,0.0197144,1.4477539   C31.7255554,51.4672852,31.7058411,51.8808594,31.6763,52.2944336z M34.6695251,57.9458008   c-0.0984497,0.3745117-0.4332275,0.6206055-0.807373,0.6206055c-0.0689087,0-0.1378174-0.0102539-0.2166138-0.0200195   c-0.4431152-0.1181641-0.7089844-0.5708008-0.6005859-1.0239258c0.4036255-1.5258789,0.659668-3.0327148,0.7679443-4.4702148   c0.0394287-0.4526367,0.4529419-0.7973633,0.8960571-0.7680664c0.4627075,0.0395508,0.807373,0.4433594,0.777832,0.90625   C35.3587341,54.7265625,35.092865,56.3212891,34.6695251,57.9458008z M37.0818176,47.2827148   c-0.3052368-1.8217773-0.807373-3.6630859-1.5162964-5.4941406c-1.0042725-2.5996094-3.3181152-4.2832031-5.8978271-4.2832031   c-0.9452515,0-1.8510742,0.2163086-2.697876,0.6499023c-3.1506958,1.6049805-4.5587158,5.6025391-3.2097778,9.1079102   c1.0239868,2.6679688,1.0437012,5.5039063,0.0196533,8.8510742c-0.088623,0.3251953-0.1870728,0.6499023-0.3052368,0.9750977   c-0.1181641,0.3447266-0.4431152,0.5610352-0.7877197,0.5610352c-0.088623,0-0.1870728-0.0092773-0.2756348-0.0488281   c-0.4332275-0.1479492-0.6696167-0.6303711-0.5120239-1.0634766c1.1716919-3.3774414,1.2701416-6.1342773,0.2953491-8.6748047   c-1.6541138-4.2924805,0.1083374-9.2158203,4.0172729-11.2045898c2.8761864-1.4639473,6.1993713-0.9461327,8.5070801,1.0732422   c1.0437012,0.8959961,1.8806152,2.0771484,2.4122925,3.4560547c0.748291,1.9296875,1.2800293,3.8886719,1.5950317,5.8188477   c0.0787964,0.4628906-0.2264404,0.8959961-0.6891479,0.9648438C37.585556,48.049057,37.1612434,47.7568092,37.0818176,47.2827148z    M38.8639832,55.0507813c-0.0491943,0.4238281-0.4036865,0.7387695-0.8270264,0.7387695   c-0.0296021,0-0.0689697-0.0097656-0.0985107-0.0097656c-0.4627686-0.059082-0.7876587-0.4726563-0.7285767-0.9355469   c0.1771851-1.4472656,0.2362671-2.8847656,0.1968994-4.2832031c-0.0197144-0.4624023,0.3446045-0.8564453,0.807373-0.8662109   c0.4528809-0.0200195,0.8468018,0.3447266,0.8566284,0.8076172C39.1298523,51.9887695,39.0609436,53.5151367,38.8639832,55.0507813   z M39.0018616,40.6459961c-1.7478523-4.6609421-5.509861-7.0302734-9.3538818-7.0302734   c-0.7876587,0-1.5655518,0.1088867-2.3236694,0.2958984c-0.2559814,0.0786133-0.5218506,0.1572266-0.7778931,0.2460938   c-0.4332275,0.1474609-0.9156494-0.0791016-1.0632935-0.512207c-0.1575928-0.4331055,0.0688477-0.9155273,0.5020752-1.0634766   c10.2781487-3.6824856,14.4985619,7.3731422,14.59198,7.4731445c0.1575928,0.4335938-0.059021,0.9160156-0.4922485,1.0834961   C39.5589523,41.2951927,39.1445961,41.0200844,39.0018616,40.6459961z M41.6405945,47.5976563   c-0.0393677,0-0.088623,0.0097656-0.1279907,0.0097656c-0.4036865,0-0.7679443-0.2954102-0.8270264-0.7089844   c-0.1575928-0.9448242-0.3544922-1.9101563-0.600647-2.8652344c-0.1181641-0.4428711,0.1477051-0.9057617,0.600647-1.0141602   c0.4429932-0.1181641,0.8959351,0.1479492,1.0140991,0.6005859c0.2560425,0.9941406,0.4725952,2.0087891,0.6400146,3.0131836   C42.4086609,47.0854492,42.1034241,47.5185547,41.6405945,47.5976563z M49.3107605,31.0170898v5.4150391   c0,0.453125-0.3742065,0.8364258-0.8369141,0.8364258c-0.4627686,0-0.8369141-0.3833008-0.8369141-0.8364258   c0-0.1785507,0-4.7308121,0-4.5786133c-0.2060432,0-4.711853,0-4.5784912,0c-0.4627075,0-0.836853-0.3837891-0.836853-0.8364258   c0-0.4633789,0.3741455-0.8374023,0.836853-0.8374023h5.4154053C48.936554,30.1796875,49.3107605,30.5537109,49.3107605,31.0170898   z M10.9796448,54.9521484c0-0.453125,0.3742065-0.8364258,0.8369751-0.8364258s0.8369141,0.3833008,0.8369141,0.8364258   c0-0.1333618,0,4.37257,0,4.5786133c-0.1521978,0,4.3999386,0,4.5784912,0c0.4627075,0,0.8369141,0.3837891,0.8369141,0.8364258   c0,0.4633789-0.3742065,0.8374023-0.8369141,0.8374023h-5.4154053c-0.4627686,0-0.8369751-0.3740234-0.8369751-0.8374023   V54.9521484z M48.4738464,61.2045898h-5.4154053c-0.4627075,0-0.836853-0.3740234-0.836853-0.8374023   c0-0.4526367,0.3741455-0.8364258,0.836853-0.8364258c-0.1333618,0,4.372448,0,4.5784912,0c0,0.1521988,0-4.4000626,0-4.5786133   c0-0.453125,0.3741455-0.8364258,0.8369141-0.8364258c0.4627075,0,0.8369141,0.3833008,0.8369141,0.8364258v5.4150391   C49.3107605,60.8305664,48.936554,61.2045898,48.4738464,61.2045898z M46.5144958,25.3647461h-5.1495361v-3.0224609h5.1495361   V25.3647461z M50.7483215,19.0341797c-0.7384644,0-1.3391113-0.5908203-1.3391113-1.3295898   c0-0.7485352,0.600647-1.3388672,1.3391113-1.3388672s1.3390503,0.590332,1.3390503,1.3388672   C52.0873718,18.4433594,51.4867859,19.0341797,50.7483215,19.0341797z M55.1790466,19.0341797   c-0.7384644,0-1.3390503-0.5908203-1.3390503-1.3295898c0-0.7485352,0.6005859-1.3388672,1.3390503-1.3388672   s1.3391113,0.590332,1.3391113,1.3388672C56.518158,18.4433594,55.917511,19.0341797,55.1790466,19.0341797z    M59.6098328,19.0341797c-0.7384644,0-1.3390503-0.5908203-1.3390503-1.3295898   c0-0.7485352,0.6005859-1.3388672,1.3390503-1.3388672s1.3390503,0.590332,1.3390503,1.3388672   C60.9488831,18.4433594,60.3482971,19.0341797,59.6098328,19.0341797z"></path></g></svg></svg> <defs><filter id="colors94605621"><feColorMatrix type="matrix" values="0 0 0 0 0.234375  0 0 0 0 0.26171875  0 0 0 0 0.3203125  0 0 0 1 0" class="icon-feColorMatrix "></feColorMatrix></filter> <filter id="colorsf3128013343"><feColorMatrix type="matrix" values="0 0 0 0 0.99609375  0 0 0 0 0.99609375  0 0 0 0 0.99609375  0 0 0 1 0" class="icon-fecolormatrix"></feColorMatrix></filter> <filter id="colorsb8140546689"><feColorMatrix type="matrix" values="0 0 0 0 0  0 0 0 0 0  0 0 0 0 0  0 0 0 1 0" class="icon-fecolormatrix"></feColorMatrix></filter></defs></g></g><defs v-gra="od"></defs></g></svg>